<?xml version="1.0" encoding="UTF-8" standalone="no"?>
<!-- Created with Inkscape (http://www.inkscape.org/) -->

<svg
   xmlns:dc="http://purl.org/dc/elements/1.1/"
   xmlns:cc="http://creativecommons.org/ns#"
   xmlns:rdf="http://www.w3.org/1999/02/22-rdf-syntax-ns#"
   xmlns:svg="http://www.w3.org/2000/svg"
   xmlns="http://www.w3.org/2000/svg"
   xmlns:sodipodi="http://sodipodi.sourceforge.net/DTD/sodipodi-0.dtd"
   xmlns:inkscape="http://www.inkscape.org/namespaces/inkscape"
   width="160"
   height="159.99998"
   viewBox="0 0 42.33333 42.333329"
   version="1.1"
   id="svg8"
   inkscape:version="0.92.3 (2405546, 2018-03-11)"
   sodipodi:docname="forum.sm.svg">
  <defs
     id="defs2" />
  <sodipodi:namedview
     id="base"
     pagecolor="#ffffff"
     bordercolor="#666666"
     borderopacity="1.0"
     inkscape:pageopacity="0.0"
     inkscape:pageshadow="2"
     inkscape:zoom="2.4013346"
     inkscape:cx="1.502042"
     inkscape:cy="82.41839"
     inkscape:document-units="mm"
     inkscape:current-layer="g52"
     showgrid="false"
     units="px"
     inkscape:window-width="1920"
     inkscape:window-height="1018"
     inkscape:window-x="-8"
     inkscape:window-y="-8"
     inkscape:window-maximized="1"
     fit-margin-top="0"
     fit-margin-left="0"
     fit-margin-right="0"
     fit-margin-bottom="0"
     inkscape:measure-start="-180.212,141.343"
     inkscape:measure-end="0,0" />
  <metadata
     id="metadata5">
    <rdf:RDF>
      <cc:Work
         rdf:about="">
        <dc:format>image/svg+xml</dc:format>
        <dc:type
           rdf:resource="http://purl.org/dc/dcmitype/StillImage" />
        <dc:title></dc:title>
      </cc:Work>
    </rdf:RDF>
  </metadata>
  <g
     style="display:inline"
     transform="translate(-45.057198,-209.76552)"
     id="g52"
     inkscape:groupmode="layer"
     inkscape:label="main">
    <path
       style="fill:#34495e;fill-opacity:1;stroke:none;stroke-width:0.09214246;stroke-opacity:1"
       d="m 66.223864,209.76552 a 21.166682,21.166682 0 0 0 -21.166666,21.16666 21.166682,21.166682 0 0 0 21.166666,21.16667 21.166682,21.166682 0 0 0 21.166667,-21.16667 21.166682,21.166682 0 0 0 -21.166667,-21.16666 z m 0,1.31914 a 19.957341,19.957341 0 0 1 19.957268,19.95745 19.957341,19.957341 0 0 1 -19.957268,19.95727 19.957341,19.957341 0 0 1 -19.95745,-19.95727 19.957341,19.957341 0 0 1 19.95745,-19.95745 z m -0.109929,1.86569 a 18.246972,18.246972 0 0 0 -18.247082,18.24709 18.246972,18.246972 0 0 0 18.247082,18.2469 18.246972,18.246972 0 0 0 18.2469,-18.2469 18.246972,18.246972 0 0 0 -18.2469,-18.24709 z m -9.156538,6.51971 h 20.111679 l 0.334344,8.55968 h -1.153614 c -0.512684,-2.94236 -1.231403,-4.85949 -2.156464,-5.75112 -1.058804,-1.03651 -2.569022,-1.55468 -4.530596,-1.55468 H 65.60057 c -0.390086,0 -0.674307,0.0947 -0.852632,0.28421 -0.178325,0.17833 -0.267438,0.45129 -0.267438,0.81909 v 8.94415 h 2.123101 c 1.181403,0 2.123179,-0.39003 2.825335,-1.1702 0.702154,-0.78017 1.081115,-1.98385 1.136841,-3.61106 h 1.203748 v 11.15075 h -1.203748 c -0.07802,-1.85012 -0.456978,-3.17086 -1.136841,-3.96217 -0.679864,-0.79132 -1.621641,-1.18698 -2.825335,-1.18698 H 64.4805 v 9.42908 c 0,0.55727 0.133761,0.95293 0.401249,1.18698 0.267487,0.2229 0.729936,0.33434 1.387508,0.33434 h 2.574485 v 1.25388 H 56.957397 v -1.25388 h 2.541123 c 0.512685,0 0.874948,-0.10037 1.086709,-0.30098 0.222906,-0.21176 0.334344,-0.5517 0.334344,-1.0198 v -19.6603 c 0,-0.44581 -0.117064,-0.76343 -0.351116,-0.9529 -0.222906,-0.18947 -0.618564,-0.28421 -1.186976,-0.28421 h -2.424084 z"
       id="circle50"
       inkscape:export-xdpi="96"
       inkscape:export-ydpi="96"
       inkscape:connector-curvature="0" />
  </g>
</svg>
