<?xml version="1.0" encoding="UTF-8" standalone="no"?>
<!-- Created with Inkscape (http://www.inkscape.org/) -->

<svg
   xmlns:dc="http://purl.org/dc/elements/1.1/"
   xmlns:cc="http://creativecommons.org/ns#"
   xmlns:rdf="http://www.w3.org/1999/02/22-rdf-syntax-ns#"
   xmlns:svg="http://www.w3.org/2000/svg"
   xmlns="http://www.w3.org/2000/svg"
   xmlns:sodipodi="http://sodipodi.sourceforge.net/DTD/sodipodi-0.dtd"
   xmlns:inkscape="http://www.inkscape.org/namespaces/inkscape"
   width="453.54297"
   height="453.54297"
   viewBox="0 0 119.9999 119.99991"
   version="1.1"
   id="svg8"
   inkscape:version="0.92.3 (2405546, 2018-03-11)"
   sodipodi:docname="forum.lg.svg">
  <defs
     id="defs2" />
  <sodipodi:namedview
     id="base"
     pagecolor="#ffffff"
     bordercolor="#666666"
     borderopacity="1.0"
     inkscape:pageopacity="0.0"
     inkscape:pageshadow="2"
     inkscape:zoom="0.849"
     inkscape:cx="-37.450449"
     inkscape:cy="162.28961"
     inkscape:document-units="mm"
     inkscape:current-layer="g52"
     showgrid="false"
     units="px"
     inkscape:window-width="1920"
     inkscape:window-height="1018"
     inkscape:window-x="-8"
     inkscape:window-y="-8"
     inkscape:window-maximized="1"
     fit-margin-top="0"
     fit-margin-left="0"
     fit-margin-right="0"
     fit-margin-bottom="0"
     inkscape:measure-start="-180.212,141.343"
     inkscape:measure-end="0,0" />
  <metadata
     id="metadata5">
    <rdf:RDF>
      <cc:Work
         rdf:about="">
        <dc:format>image/svg+xml</dc:format>
        <dc:type
           rdf:resource="http://purl.org/dc/dcmitype/StillImage" />
        <dc:title></dc:title>
      </cc:Work>
    </rdf:RDF>
  </metadata>
  <g
     style="display:inline"
     transform="translate(-6.2239096,-170.93223)"
     id="g52"
     inkscape:groupmode="layer"
     inkscape:label="main">
    <path
       style="fill:#34495e;fill-opacity:1;stroke:none;stroke-width:0.98717874;stroke-opacity:1"
       d="M 226.77148 0 A 226.77165 226.77165 0 0 0 0 226.77148 A 226.77165 226.77165 0 0 0 226.77148 453.54297 A 226.77165 226.77165 0 0 0 453.54297 226.77148 A 226.77165 226.77165 0 0 0 226.77148 0 z M 226.77148 14.132812 A 213.81524 213.81524 0 0 1 440.58594 227.94922 A 213.81524 213.81524 0 0 1 226.77148 441.76367 A 213.81524 213.81524 0 0 1 12.955078 227.94922 A 213.81524 213.81524 0 0 1 226.77148 14.132812 z M 225.59375 34.121094 A 195.491 195.491 0 0 0 30.101562 229.61328 A 195.491 195.491 0 0 0 225.59375 425.10352 A 195.491 195.491 0 0 0 421.08398 229.61328 A 195.491 195.491 0 0 0 225.59375 34.121094 z M 127.49414 103.9707 L 342.96289 103.9707 L 346.54492 195.67578 L 334.18555 195.67578 C 328.69285 164.15246 320.99277 143.61307 311.08203 134.06055 C 299.73841 122.95574 283.55852 117.4043 262.54297 117.4043 L 220.09375 117.4043 C 215.91452 117.4043 212.86949 118.41931 210.95898 120.44922 C 209.04848 122.35972 208.09375 125.28419 208.09375 129.22461 L 208.09375 225.04883 L 230.83984 225.04883 C 243.49693 225.04883 253.58676 220.87017 261.10938 212.51172 C 268.63199 204.15326 272.69203 191.25757 273.28906 173.82422 L 286.18555 173.82422 L 286.18555 293.28906 L 273.28906 293.28906 C 272.45322 273.46758 268.39317 259.31771 261.10938 250.83984 C 253.82558 242.36198 243.73575 238.12305 230.83984 238.12305 L 208.09375 238.12305 L 208.09375 339.14258 C 208.09375 345.1129 209.52682 349.35184 212.39258 351.85938 C 215.25833 354.24751 220.21283 355.44141 227.25781 355.44141 L 254.83984 355.44141 L 254.83984 368.875 L 127.49414 368.875 L 127.49414 355.44141 L 154.71875 355.44141 C 160.21145 355.44141 164.0926 354.36611 166.36133 352.2168 C 168.74946 349.94807 169.94336 346.30609 169.94336 341.29102 L 169.94336 130.6582 C 169.94336 125.88194 168.68918 122.47913 166.18164 120.44922 C 163.79351 118.41931 159.55458 117.4043 153.46484 117.4043 L 127.49414 117.4043 L 127.49414 103.9707 z "
       id="circle50"
       transform="matrix(0.26458333,0,0,0.26458333,6.2239096,170.93223)"
       inkscape:export-xdpi="96"
       inkscape:export-ydpi="96" />
  </g>
</svg>
